<?xml version="1.0" encoding="UTF-8" standalone="no"?>
<!-- Created with Inkscape (http://www.inkscape.org/) -->

<svg
   xmlns:dc="http://purl.org/dc/elements/1.1/"
   xmlns:cc="http://creativecommons.org/ns#"
   xmlns:rdf="http://www.w3.org/1999/02/22-rdf-syntax-ns#"
   xmlns:svg="http://www.w3.org/2000/svg"
   xmlns="http://www.w3.org/2000/svg"
   xmlns:sodipodi="http://sodipodi.sourceforge.net/DTD/sodipodi-0.dtd"
   xmlns:inkscape="http://www.inkscape.org/namespaces/inkscape"
   id="svg2"
   version="1.1"
   inkscape:version="0.48.5 r10040"
   width="100"
   height="100"
   sodipodi:docname="Enter Key-100.png">
  <metadata
     id="metadata8">
    <rdf:RDF>
      <cc:Work
         rdf:about="">
        <dc:format>image/svg+xml</dc:format>
        <dc:type
           rdf:resource="http://purl.org/dc/dcmitype/StillImage" />
        <dc:title></dc:title>
      </cc:Work>
    </rdf:RDF>
  </metadata>
  <defs
     id="defs6" />
  <sodipodi:namedview
     pagecolor="#ffffff"
     bordercolor="#666666"
     borderopacity="1"
     objecttolerance="10"
     gridtolerance="10"
     guidetolerance="10"
     inkscape:pageopacity="0"
     inkscape:pageshadow="2"
     inkscape:window-width="1153"
     inkscape:window-height="744"
     id="namedview4"
     showgrid="false"
     inkscape:zoom="3.337544"
     inkscape:cx="42.924922"
     inkscape:cy="47.553349"
     inkscape:window-x="399"
     inkscape:window-y="155"
     inkscape:window-maximized="0"
     inkscape:current-layer="svg2" />
  <path
     style="fill:#000000"
     d="m 7.9992388,92.525095 -4.2988646,-2.42623 0,-21.2 0,-21.2 4.2239592,-2.875662 2.5760406,-3.924338 14.6,0 14.6,0 0,-14.6 0,-14.6 4.523581,-2.725852 2.276419,-4.0741484 21.2,0 21.2,0 2.351325,4.3737699 4.448675,2.4262305 0,39.2 0,39.2 -4.898108,2.201514 -1.901892,4.598486 -39.2,0 -39.2,0 z m 81.7011352,-1.62623 c 1.92983,-1.929825 2,-3.333333 2,-40 0,-36.666667 -0.0702,-38.070175 -2,-40 -1.86666,-1.8666671 -3.33333,-2.0000004 -22,-2.0000004 -25.73224,0 -24,-1.3569274 -24,18.8000004 0,10.177778 -0.37477,15.174775 -1.2,16 -0.82522,0.825225 -5.82222,1.2 -16,1.2 -20.1569198,0 -18.7999998,-1.732248 -18.7999998,24 0,18.666667 0.13334,20.133333 2,22 1.9298298,1.929825 3.3333398,2 39.9999998,2 36.66667,0 38.07018,-0.07018 40,-2 z m -63.50906,-15.009134 -6.95543,-7.009135 7.21156,-7.211555 c 5.69696,-5.696959 7.46924,-6.953869 8.4385,-5.984615 0.96925,0.969255 0.1939,2.275746 -3.69172,6.22069 l -4.91866,4.993749 15.76207,0 c 16.51055,0 20.42291,-0.827977 22.26996,-4.713015 0.46727,-0.982842 1.0843,-8.311985 1.37118,-16.286985 0.43133,-11.990399 0.78122,-14.5 2.0216,-14.5 1.26746,0 1.5,2.353313 1.5,15.179814 0,13.77902 -0.19112,15.440061 -2.07108,18 -4.03045,5.488238 -7.29491,6.316919 -24.89132,6.318632 l -15.96241,0.0016 4.83056,4.90431 c 4.1658,4.229395 5.28006,7.09569 2.75842,7.09569 -0.39479,0 -3.84775,-3.15411 -7.67323,-7.009134 z"
     id="path2987"
     inkscape:connector-curvature="0"
     sodipodi:nodetypes="cccccccccccccccccccccccsssssssssssccssscssssssscsscc" />
</svg>
